<?xml version="1.0" standalone="no"?>
<!DOCTYPE svg PUBLIC "-//W3C//DTD SVG 20010904//EN"
 "http://www.w3.org/TR/2001/REC-SVG-20010904/DTD/svg10.dtd">
<svg version="1.0" xmlns="http://www.w3.org/2000/svg"
 width="631.000000pt" height="631.000000pt" viewBox="0 0 631.000000 631.000000"
 preserveAspectRatio="xMidYMid meet">
<metadata>
Created by potrace 1.14, written by Peter Selinger 2001-2017
</metadata>
<g transform="translate(0.000000,631.000000) scale(0.100000,-0.100000)"
fill="#000000" stroke="none">
<path d="M2948 6305 c-1 -1 -41 -5 -88 -9 -47 -3 -96 -8 -110 -11 -14 -2 -38
-6 -55 -9 -83 -13 -118 -19 -205 -38 -155 -32 -384 -100 -486 -145 -22 -9 -44
-18 -51 -19 -12 -2 -333 -161 -388 -192 -106 -60 -353 -235 -435 -308 -14 -12
-52 -46 -85 -75 -306 -269 -609 -683 -768 -1049 -8 -19 -25 -57 -37 -85 -12
-27 -23 -54 -25 -60 -1 -5 -5 -17 -8 -25 -30 -74 -98 -291 -117 -375 -18 -79
-19 -84 -40 -200 -39 -223 -45 -295 -45 -545 0 -199 7 -312 25 -435 19 -131
21 -140 26 -165 3 -14 8 -36 10 -50 20 -112 99 -382 139 -475 7 -16 26 -61 41
-100 56 -141 167 -351 262 -495 165 -252 347 -462 573 -660 118 -104 123 -108
228 -183 455 -327 968 -521 1536 -582 122 -13 534 -13 630 0 57 7 222 32 275
41 19 3 53 10 75 16 22 6 49 12 60 13 50 7 282 79 415 130 121 46 340 152 450
218 541 323 954 766 1224 1312 118 238 150 319 230 595 36 124 76 350 93 525
10 104 10 500 0 590 -11 94 -14 118 -22 167 -4 24 -9 57 -11 73 -35 219 -128
525 -229 747 -68 150 -182 358 -264 478 -416 611 -1029 1058 -1736 1265 -49
14 -101 28 -115 31 -14 2 -31 7 -39 9 -38 14 -225 48 -331 60 -30 4 -68 9 -85
11 -34 6 -511 14 -517 9z"/>
</g>
</svg>
